<svg width="150" height="32" viewBox="0 0 150 32" fill="none" xmlns="http://www.w3.org/2000/svg">
<path d="M21.3841 29.273H0V4.75891H21.3841V29.273V29.273ZM15.0778 23.7477V26.5292H17.8622V23.7477H15.0778ZM3.52481 23.7477V26.5292H6.30932V23.7477H3.52481ZM15.0778 19.6857V22.4701H17.8622V19.6857H15.0778ZM3.52481 19.6857V22.4701H6.30932V19.6857H3.52481ZM15.0778 15.6266V18.4081H17.8622V15.6266H15.0778ZM11.2278 15.6266V18.4081H14.0094V15.6266H11.2278ZM7.37485 15.6266V18.4081H10.1593V15.6266H7.37485ZM3.52477 15.6266V18.4081H6.30929V15.6266H3.52477ZM15.0778 11.5646V14.3491H17.8622V11.5646H15.0778ZM3.52477 11.5646V14.3491H6.30929V11.5646H3.52477ZM15.0778 7.50561V10.29H17.8622V7.50561H15.0778ZM11.2278 7.50561V10.29H14.0093V7.50561H11.2278ZM7.37481 7.50561V10.29H10.1592V7.50561H7.37481ZM3.52474 7.50561V10.29H6.30925V7.50561H3.52474Z" fill="#A8111C"/>
<path d="M21.3842 0H0V3.09221H21.3842V0Z" fill="#A8111C"/>
<path d="M38.7819 15.2984L37.6205 11.5936H31.5987L30.3415 15.2984H27.8735L33.4918 0.119019H36.163L41.2441 15.2984H38.7819ZM32.2636 9.63955H36.9963L34.7054 2.39826L32.2636 9.63955Z" fill="#A8111C"/>
<path d="M48.8336 4.76468C49.3942 4.73846 49.9534 4.83952 50.4693 5.06027C50.9852 5.28103 51.4444 5.61574 51.8125 6.03931C52.5384 6.89292 52.9042 8.18207 52.9042 9.91547C52.9042 11.8511 52.4745 13.2767 51.6151 14.1921C51.205 14.6412 50.7032 14.9971 50.1438 15.2355C49.5843 15.474 48.9801 15.5895 48.3721 15.5743C47.3416 15.5508 46.3291 15.2989 45.4077 14.8369L45.3148 21.0706H43.0615L43.3373 5.0405H45.544V6.09737C45.9688 5.65776 46.481 5.31204 47.0476 5.0825C47.6142 4.85296 48.2226 4.74469 48.8336 4.76468ZM47.89 13.7654C49.7134 13.7654 50.626 12.516 50.628 10.017C50.628 8.83524 50.4189 7.98453 50.0066 7.41833C49.5943 6.85213 48.9324 6.59098 48.0294 6.59098C47.1221 6.57398 46.2421 6.90189 45.5672 7.50848L45.4307 13.0512C46.1785 13.4887 47.0241 13.7313 47.89 13.7568V13.7654Z" fill="#A8111C"/>
<path d="M61.2055 4.76456C61.766 4.73833 62.3253 4.83938 62.8412 5.06013C63.3571 5.28089 63.8164 5.61561 64.1845 6.03919C64.9132 6.89284 65.2762 8.18196 65.2762 9.91536C65.2762 11.851 64.8474 13.2766 63.99 14.192C63.5798 14.6411 63.078 14.9969 62.5185 15.2354C61.959 15.4738 61.3548 15.5893 60.7467 15.5741C59.7153 15.5504 58.702 15.2985 57.7795 14.8366L57.6866 21.0704H55.4333L55.7237 5.04023H57.9332V6.09725C58.3553 5.65883 58.8645 5.31372 59.4281 5.08418C59.9917 4.85464 60.5972 4.74576 61.2055 4.76456ZM60.2618 13.7653C62.0891 13.7653 63.0017 12.5158 62.9998 10.0168C62.9998 8.83608 62.7927 7.96987 62.3784 7.41821C61.9642 6.86655 61.3022 6.5878 60.3924 6.58195C59.4852 6.56561 58.6056 6.8935 57.9304 7.49964L57.7939 13.0425C58.5433 13.4844 59.3922 13.7301 60.2618 13.7568V13.7653Z" fill="#A8111C"/>
<path d="M77.2327 15.2984L76.0714 11.5936H70.0525L68.7952 15.2984H66.3359L71.9455 0.119019H74.6196L79.7036 15.2984H77.2327ZM70.7144 9.63955H75.4471L73.1678 2.39826L70.7144 9.63955Z" fill="#A8111C"/>
<path d="M86.849 4.83427C87.1099 4.83339 87.3707 4.84793 87.63 4.8778L87.6068 6.76521H86.7096C85.5153 6.76521 84.6191 7.10977 84.0211 7.79887L83.9108 15.2986H81.6111L81.794 5.04054H84.05L84.0268 6.07416C84.3825 5.67928 84.818 5.36453 85.3046 5.15079C85.7911 4.93706 86.3176 4.82923 86.849 4.83445L86.849 4.83427Z" fill="#A8111C"/>
<path d="M94.7144 4.8344C94.9754 4.83352 95.2362 4.84806 95.4955 4.87793L95.4722 6.76527H94.5751C93.3808 6.76527 92.4846 7.10981 91.8866 7.79889L91.7704 15.2986H89.4707L89.6536 5.04056H91.9067L91.8864 6.07418C92.2427 5.67857 92.6791 5.3634 93.1667 5.14964C93.6544 4.93588 94.1819 4.82844 94.7143 4.83447L94.7144 4.8344Z" fill="#A8111C"/>
<path d="M101.198 4.76465C102.211 4.72125 103.216 4.96051 104.101 5.45567C104.845 5.91441 105.209 6.64221 105.193 7.63907L105.077 15.2985H103.016L103.039 14.0093C102.67 14.5187 102.181 14.9285 101.615 15.2017C101.049 15.4749 100.424 15.6029 99.7956 15.5743C98.7068 15.5743 97.8735 15.2839 97.2899 14.7236C96.9949 14.4246 96.7651 14.0677 96.6152 13.6754C96.4653 13.283 96.3984 12.8638 96.4189 12.4443C96.4189 10.3906 97.86 9.35599 100.742 9.34049L102.995 9.31727L103.019 8.26039C103.019 7.17255 102.328 6.62766 100.948 6.62573C99.8484 6.6369 98.7589 6.83929 97.7284 7.22384L97.2232 5.48163C98.4952 5.00922 99.841 4.76645 101.198 4.76465ZM100.304 13.8729C100.796 13.8799 101.285 13.7862 101.74 13.5975C102.194 13.4087 102.606 13.129 102.949 12.7754L102.969 10.8445L101.36 10.8678C100.366 10.8832 99.6522 11.0062 99.2206 11.2365C99.0112 11.3455 98.8386 11.5138 98.7245 11.7204C98.6103 11.927 98.5597 12.1627 98.5789 12.3979C98.5669 12.6046 98.6019 12.8112 98.6814 13.0023C98.7608 13.1934 98.8827 13.364 99.0376 13.5012C99.4014 13.7729 99.8507 13.9048 100.304 13.8729H100.304Z" fill="#A8111C"/>
<path d="M114.194 4.7646C115.06 4.73174 115.916 4.96916 116.642 5.44399C117.295 5.89403 117.611 6.61988 117.597 7.6158L117.481 15.2984H115.204L115.297 8.42007C115.328 7.19481 114.685 6.58218 113.366 6.58218C112.883 6.56161 112.4 6.643 111.95 6.82107C111.5 6.99915 111.092 7.26992 110.753 7.6158L110.623 15.2984H108.329L108.512 5.04035H110.698L110.675 6.12044C111.517 5.21848 112.69 4.76653 114.194 4.7646Z" fill="#A8111C"/>
<path d="M127.855 5.04048H129.948L129.739 17.299C129.71 18.7101 129.274 19.7369 128.43 20.3796C127.586 21.0222 126.321 21.3445 124.635 21.3465C123.321 21.3252 122.015 21.1399 120.747 20.7948L121.116 18.9772C122.212 19.2705 123.34 19.4304 124.475 19.4534C125.547 19.4534 126.322 19.2598 126.798 18.8727C127.274 18.4856 127.511 17.8265 127.509 16.8954L127.532 14.7351C126.581 15.2785 125.501 15.5563 124.405 15.5394C123.83 15.5665 123.256 15.4576 122.73 15.2215C122.205 14.9854 121.742 14.6288 121.38 14.1805C120.652 13.2786 120.288 11.945 120.288 10.1796C120.288 8.41431 120.683 7.08064 121.473 6.17863C121.858 5.73384 122.337 5.38109 122.877 5.14642C123.416 4.91174 124.001 4.80112 124.588 4.82272C126.029 4.8382 127.11 5.30566 127.832 6.2251L127.855 5.04048ZM122.588 10.0548C122.588 12.5228 123.401 13.7567 125.027 13.7567C125.918 13.7432 126.79 13.4969 127.556 13.0425L127.646 7.63907C127.081 6.99843 126.245 6.66066 125.14 6.62577C123.439 6.62577 122.588 7.76878 122.588 10.0548H122.588Z" fill="#A8111C"/>
<path d="M141.33 10.56H134.614C134.614 11.6343 134.814 12.4279 135.212 12.9409C135.613 13.4548 136.374 13.7103 137.535 13.7103C138.569 13.6883 139.596 13.542 140.595 13.2748L140.964 15.0662C139.83 15.3882 138.659 15.5591 137.48 15.5743C135.883 15.5743 134.633 15.1872 133.729 14.4129C132.825 13.6386 132.381 12.3079 132.399 10.4206C132.376 9.4651 132.533 8.5138 132.86 7.61587C133.1 6.92724 133.525 6.31825 134.089 5.85636C134.558 5.48877 135.088 5.20493 135.654 5.01731C136.193 4.84719 136.755 4.76197 137.32 4.76471C138.609 4.76471 139.61 5.1712 140.322 5.98418C141.035 6.79716 141.391 7.95856 141.391 9.46837C141.376 9.77026 141.362 10.1302 141.33 10.56ZM137.076 6.51256C135.68 6.51256 134.87 7.31684 134.637 8.92825H139.237V8.74244C139.255 8.1698 139.072 7.6088 138.72 7.15714C138.377 6.72742 137.829 6.51256 137.076 6.51256Z" fill="#A8111C"/>
<path d="M149.219 4.8344C149.48 4.83351 149.741 4.84805 150 4.87793L149.979 6.76527H149.082C147.886 6.76527 146.989 7.10981 146.391 7.79889L146.275 15.2986H143.975L144.161 5.04056H146.414L146.391 6.07418C146.747 5.67857 147.183 5.3634 147.671 5.14964C148.159 4.93588 148.686 4.82844 149.218 4.83447L149.219 4.8344Z" fill="#A8111C"/>
<path d="M29.6154 24.9177C30.0296 24.932 30.439 25.0104 30.8291 25.1501L30.6288 25.8411C30.3099 25.73 29.9761 25.6673 29.6387 25.6553C29.2554 25.6553 29.058 25.7918 29.058 26.0618C29.0578 26.1358 29.075 26.2088 29.1083 26.2749C29.1416 26.341 29.19 26.3983 29.2496 26.4422C29.388 26.5519 29.5403 26.6427 29.7026 26.7122L30.2397 26.9474C30.4246 27.0299 30.5818 27.1639 30.6925 27.3334C30.8167 27.5293 30.8794 27.7578 30.8725 27.9896C30.8821 28.1614 30.8522 28.3331 30.7853 28.4916C30.7184 28.6501 30.6162 28.7913 30.4864 28.9042C30.1733 29.1458 29.7837 29.2664 29.3889 29.2439C28.9617 29.2386 28.5389 29.157 28.1404 29.003L28.3348 28.3003C28.6617 28.4328 29.01 28.5046 29.3626 28.5123C29.5323 28.5217 29.7008 28.4782 29.8446 28.3876C29.8994 28.3504 29.944 28.3001 29.9744 28.2413C30.0048 28.1824 30.0201 28.117 30.0188 28.0508C30.0182 27.9812 30.001 27.9128 29.9687 27.8512C29.9363 27.7896 29.8898 27.7366 29.833 27.6965C29.6964 27.5888 29.5472 27.4982 29.3888 27.4265L28.8574 27.171C28.6711 27.0814 28.5125 26.9429 28.3986 26.7703C28.2697 26.5763 28.2048 26.3468 28.2131 26.1139C28.2054 25.9499 28.2351 25.7862 28.3 25.6353C28.3648 25.4844 28.4632 25.3502 28.5876 25.2429C28.8803 25.0151 29.2449 24.8997 29.6154 24.9177Z" fill="#1A171B"/>
<path d="M36.9643 24.909C37.3309 24.9012 37.6916 25.0022 38.0008 25.1993C38.1401 25.2886 38.2524 25.4142 38.3256 25.5626C38.3987 25.711 38.43 25.8765 38.416 26.0413L38.361 29.1626H37.4551L37.5101 26.3579C37.5101 25.8875 37.2488 25.6523 36.732 25.6523C36.5386 25.65 36.3467 25.6875 36.1684 25.7624C35.9901 25.8373 35.8291 25.9481 35.6954 26.0879L35.6373 29.1626H34.7228L34.7693 26.3579C34.7693 25.8875 34.5138 25.6523 33.9708 25.6523C33.7829 25.6468 33.5959 25.6813 33.4222 25.7533C33.2486 25.8254 33.0922 25.9335 32.9633 26.0705L32.9053 29.1627H31.979L32.0546 25.0308H32.9256V25.4663C33.0934 25.2808 33.3002 25.1346 33.531 25.0382C33.7619 24.9418 34.0112 24.8977 34.2612 24.9088C34.868 24.9088 35.2861 25.0918 35.5213 25.4547C35.7093 25.2665 35.9352 25.1204 36.184 25.0263C36.4328 24.9323 36.6988 24.8922 36.9643 24.909Z" fill="#1A171B"/>
<path d="M41.3076 24.909C41.7142 24.896 42.1163 24.9965 42.469 25.1993C42.615 25.2904 42.7333 25.4198 42.8111 25.5733C42.8889 25.7268 42.9232 25.8987 42.9103 26.0703L42.8638 29.1538H42.0306V28.6341C41.8825 28.8396 41.6854 29.0049 41.4573 29.1149C41.2291 29.2249 40.9771 29.2762 40.724 29.2642C40.5414 29.2765 40.358 29.2526 40.1846 29.1938C40.0112 29.135 39.8511 29.0425 39.7136 28.9216C39.5953 28.8015 39.503 28.6583 39.4426 28.5009C39.3821 28.3435 39.3548 28.1754 39.3623 28.007C39.3623 27.1785 39.943 26.7614 41.1045 26.7555H42.0133V26.3288C42.0133 25.8903 41.723 25.6726 41.18 25.6726C40.7369 25.676 40.2977 25.7566 39.8822 25.9106L39.6788 25.208C40.1991 25.0102 40.7511 24.9089 41.3077 24.9089L41.3076 24.909ZM40.9389 28.5761C41.1375 28.5789 41.3345 28.5409 41.5177 28.4645C41.701 28.3881 41.8667 28.2749 42.0045 28.1319V27.3537H41.357C41.0595 27.341 40.7626 27.3914 40.486 27.5018C40.4028 27.5462 40.3342 27.6136 40.2884 27.696C40.2426 27.7784 40.2215 27.8722 40.2276 27.9663C40.2225 28.0496 40.2366 28.133 40.2688 28.21C40.3011 28.2871 40.3505 28.3557 40.4134 28.4106C40.5617 28.5295 40.7492 28.5885 40.9389 28.5761Z" fill="#1A171B"/>
<path d="M46.29 24.9379C46.3948 24.9376 46.4995 24.9434 46.6036 24.9553V25.716H46.2436C46.0421 25.6989 45.8394 25.7273 45.6504 25.7992C45.4614 25.871 45.291 25.9845 45.1519 26.1312L45.1054 29.1508H44.1792L44.2518 25.0192H45.1606V25.4373C45.3028 25.2789 45.477 25.1524 45.6717 25.0663C45.8664 24.9802 46.0771 24.9365 46.29 24.9379Z" fill="#1A171B"/>
<path d="M49.6494 25.78H48.488L48.4502 28.0128C48.4358 28.1437 48.471 28.2753 48.5489 28.3815C48.5986 28.4215 48.6559 28.4511 48.7172 28.4686C48.7786 28.486 48.8428 28.491 48.9061 28.4831C49.1028 28.4791 49.2981 28.4489 49.4868 28.3931L49.6058 29.1045C49.3049 29.2076 48.989 29.2606 48.6709 29.2613C47.9295 29.2613 47.5589 28.971 47.5589 28.3902L47.6053 25.7771H46.9666V25.0164H47.6053L47.6344 23.7389H48.5054L48.4764 25.0164H49.6378L49.6494 25.78Z" fill="#1A171B"/>
<path d="M56.0627 24.909C56.4693 24.896 56.8714 24.9965 57.2241 25.1993C57.3701 25.2904 57.4884 25.4198 57.5662 25.5733C57.644 25.7268 57.6783 25.8987 57.6654 26.0704L57.619 29.1539H56.7856V28.6342C56.6375 28.8396 56.4405 29.0048 56.2123 29.1149C55.9842 29.2249 55.7322 29.2762 55.4792 29.2642C55.2969 29.2768 55.114 29.253 54.941 29.1942C54.768 29.1354 54.6085 29.0427 54.4717 28.9216C54.3524 28.802 54.2593 28.659 54.1983 28.5015C54.1373 28.3441 54.1098 28.1756 54.1175 28.007C54.1175 27.1785 54.6982 26.7614 55.8597 26.7555H56.7685V26.3288C56.7685 25.8903 56.4781 25.6726 55.9352 25.6726C55.492 25.676 55.0529 25.7566 54.6373 25.9106L54.4339 25.208C54.9543 25.0106 55.5061 24.9093 56.0627 24.909ZM55.6996 28.5761C55.8981 28.5788 56.0951 28.5408 56.2784 28.4644C56.4617 28.388 56.6273 28.2748 56.7651 28.1318V27.3537H56.1178C55.8203 27.341 55.5234 27.3914 55.2468 27.5018C55.1637 27.5462 55.0951 27.6136 55.0493 27.696C55.0034 27.7784 54.9823 27.8722 54.9884 27.9663C54.9834 28.0496 54.9975 28.133 55.0297 28.21C55.0619 28.2871 55.1113 28.3557 55.1742 28.4106C55.3226 28.5295 55.51 28.5885 55.6998 28.5761L55.6996 28.5761Z" fill="#1A171B"/>
<path d="M61.2193 24.909C61.4435 24.9001 61.6669 24.9416 61.8729 25.0305C62.079 25.1195 62.2624 25.2536 62.4097 25.4229C62.7039 25.7656 62.85 26.2862 62.8481 26.985C62.8481 27.7631 62.6768 28.3351 62.3284 28.7068C62.1635 28.8873 61.9618 29.0303 61.7369 29.1259C61.5119 29.2216 61.269 29.2678 61.0247 29.2614C60.6094 29.2539 60.201 29.1547 59.8285 28.971L59.7907 31.4825H58.8965L59.0068 25.0252H59.8953V25.452C60.0657 25.274 60.2717 25.1337 60.4997 25.0402C60.7278 24.9467 60.9729 24.902 61.2193 24.9092L61.2193 24.909ZM60.8418 28.5297C61.5754 28.5297 61.9421 28.0264 61.9421 27.0199C61.9712 26.6538 61.8838 26.2879 61.6924 25.9745C61.5969 25.8585 61.4745 25.7675 61.3359 25.7094C61.1973 25.6512 61.0466 25.6277 60.8969 25.6408C60.5319 25.6358 60.1784 25.7684 59.9069 26.0123L59.8488 28.2424C60.1506 28.4197 60.492 28.5185 60.8418 28.5298V28.5297Z" fill="#1A171B"/>
<path d="M66.2046 24.9089C66.4303 24.8986 66.6554 24.9395 66.863 25.0285C67.0707 25.1175 67.2555 25.2523 67.4037 25.4228C67.698 25.7655 67.8441 26.2862 67.8421 26.9849C67.8421 27.763 67.6708 28.335 67.3253 28.7067C67.1599 28.8873 66.9577 29.0302 66.7323 29.1259C66.5068 29.2216 66.2635 29.2677 66.0187 29.2612C65.6034 29.2537 65.195 29.1546 64.8225 28.9709L64.7876 31.4824H63.8789L63.9892 25.0251H64.8777V25.4518C65.0489 25.274 65.2554 25.1339 65.4839 25.0404C65.7123 24.947 65.9578 24.9022 66.2046 24.909V24.9089ZM65.8243 28.5296C66.5599 28.5296 66.9266 28.0263 66.9246 27.0198C66.9536 26.6537 66.8663 26.2879 66.6749 25.9744C66.5808 25.8605 66.4608 25.7708 66.3249 25.7127C66.1891 25.6547 66.0413 25.63 65.8939 25.6407C65.5288 25.6356 65.1753 25.7683 64.9037 26.0123L64.8487 28.2423C65.145 28.4175 65.4803 28.5163 65.8243 28.5297V28.5296Z" fill="#1A171B"/>
<path d="M70.798 24.909C71.0799 24.894 71.3617 24.9379 71.6257 25.0379C71.8897 25.1379 72.1299 25.2917 72.3311 25.4897C72.5215 25.7025 72.668 25.9508 72.7621 26.2203C72.8563 26.4899 72.8963 26.7754 72.8799 27.0604C72.8954 27.3555 72.8521 27.6507 72.7524 27.9289C72.6527 28.207 72.4986 28.4626 72.2992 28.6806C71.8707 29.059 71.3198 29.2695 70.7482 29.2732C70.1766 29.277 69.6229 29.0737 69.1896 28.7009C68.9969 28.4881 68.8484 28.2391 68.7527 27.9685C68.657 27.6979 68.616 27.4109 68.632 27.1243C68.6164 26.8305 68.6597 26.5366 68.7594 26.2599C68.8591 25.9831 69.0133 25.7291 69.2127 25.5129C69.4206 25.3077 69.6689 25.1481 69.9418 25.0442C70.2148 24.9402 70.5063 24.8942 70.798 24.909ZM70.7777 25.6494C70.6103 25.6391 70.4427 25.6667 70.2874 25.73C70.1321 25.7934 69.993 25.8908 69.8805 26.0152C69.6531 26.3165 69.5417 26.6896 69.5669 27.0663C69.5411 27.4511 69.6545 27.8323 69.8863 28.1406C69.9955 28.2683 70.1328 28.3691 70.2874 28.4351C70.442 28.501 70.6097 28.5304 70.7776 28.5209C70.9419 28.5304 71.1061 28.5015 71.2573 28.4365C71.4085 28.3715 71.5425 28.2722 71.6486 28.1464C71.8652 27.8297 71.9676 27.4488 71.939 27.0663C71.9665 26.6929 71.8639 26.3215 71.6486 26.0152C71.5411 25.8917 71.4066 25.7945 71.2556 25.7311C71.1046 25.6677 70.9411 25.6397 70.7776 25.6494H70.7777Z" fill="#1A171B"/>
<path d="M74.0905 23.3033C74.1374 23.2508 74.1952 23.209 74.2598 23.1809C74.3245 23.1528 74.3944 23.1391 74.4649 23.1406C74.5366 23.1395 74.6077 23.1534 74.6737 23.1814C74.7397 23.2094 74.7991 23.2509 74.8482 23.3032C74.8999 23.3527 74.9411 23.4121 74.969 23.4781C74.997 23.544 75.0112 23.6149 75.0108 23.6865C75.0108 23.7563 74.9964 23.8254 74.9684 23.8893C74.9404 23.9533 74.8995 24.0108 74.8482 24.0581C74.798 24.1086 74.7383 24.1485 74.6724 24.1754C74.6066 24.2023 74.536 24.2158 74.4649 24.2149C74.395 24.2163 74.3256 24.203 74.2611 24.176C74.1966 24.149 74.1384 24.1089 74.0904 24.0581C74.0411 24.0096 74.0021 23.9517 73.9757 23.8879C73.9492 23.8241 73.9358 23.7556 73.9363 23.6865C73.9348 23.5433 73.9903 23.4055 74.0904 23.3032L74.0905 23.3033ZM74.918 25.0193L74.8541 29.151H73.9364L74.0235 25.0193H74.918Z" fill="#1A171B"/>
<path d="M78.6054 24.9091C78.9539 24.8954 79.298 24.9908 79.5897 25.1821C79.7236 25.2817 79.8295 25.4143 79.8971 25.5669C79.9648 25.7195 79.9919 25.887 79.9758 26.0531L79.9294 29.1453H79.0119L79.0496 26.3754C79.0496 25.8818 78.8028 25.635 78.2715 25.635C78.0759 25.6277 77.881 25.6616 77.6994 25.7346C77.5178 25.8076 77.3536 25.918 77.2175 26.0587L77.171 29.151H76.2449L76.3204 25.0194H77.1914V25.4549C77.3749 25.2689 77.5959 25.1241 77.8397 25.03C78.0835 24.9359 78.3445 24.8946 78.6054 24.9091Z" fill="#1A171B"/>
<path d="M83.579 25.7801H82.4177L82.3799 28.0128C82.3669 28.1437 82.402 28.2748 82.4787 28.3816C82.5284 28.4216 82.5856 28.4512 82.6469 28.4687C82.7083 28.4861 82.7725 28.4911 82.8358 28.4832C83.0325 28.4792 83.2278 28.4489 83.4165 28.3932L83.5356 29.1046C83.2347 29.208 82.9188 29.261 82.6007 29.2614C81.8593 29.2614 81.4886 28.9711 81.4886 28.3904L81.5351 25.7772H80.8962V25.0165H81.5728L81.6018 23.739H82.4728L82.4438 25.0165H83.6052L83.579 25.7801Z" fill="#1A171B"/>
<path d="M89.4672 24.9089C89.8348 24.9008 90.1965 25.0018 90.5066 25.1993C90.645 25.2895 90.7566 25.4152 90.8297 25.5634C90.9027 25.7115 90.9345 25.8766 90.9218 26.0413L90.8638 29.1509H89.9462L90.0012 26.3462C90.0012 25.8758 89.7428 25.6406 89.2231 25.6406C89.0298 25.6387 88.8381 25.6763 88.6599 25.7511C88.4817 25.826 88.3207 25.9366 88.1867 26.076L88.1317 29.1508H87.214L87.2605 26.3461C87.2605 25.8757 87.0079 25.6405 86.465 25.6405C86.2766 25.635 86.0892 25.6694 85.915 25.7414C85.7409 25.8135 85.584 25.9216 85.4546 26.0586L85.3996 29.1509H84.4761L84.5516 25.0192H85.4226V25.4547C85.5919 25.2702 85.8 25.1255 86.032 25.0311C86.264 24.9367 86.514 24.895 86.764 24.9089C87.368 24.9089 87.788 25.0909 88.0242 25.4548C88.212 25.2664 88.4379 25.1202 88.6867 25.0261C88.9356 24.932 89.2017 24.892 89.4672 24.9089Z" fill="#1A171B"/>
<path d="M95.5996 27.2434H92.8964C92.8701 27.5801 92.9537 27.9163 93.1345 28.2015C93.2971 28.4076 93.6077 28.5122 94.0723 28.5122C94.4884 28.5036 94.9018 28.4441 95.3034 28.3351L95.4515 29.058C94.9959 29.1867 94.5254 29.255 94.052 29.2612C93.5083 29.2928 92.9717 29.1257 92.5422 28.7909C92.1803 28.4735 91.9983 27.9392 91.9963 27.1881C91.9867 26.8033 92.0497 26.4202 92.1822 26.0589C92.2773 25.7805 92.4495 25.5348 92.6787 25.3504C92.8667 25.2019 93.0789 25.087 93.3059 25.0107C93.524 24.9429 93.7511 24.9086 93.9795 24.9091C94.2046 24.8963 94.4298 24.9336 94.6386 25.0185C94.8475 25.1034 95.035 25.2336 95.1873 25.3998C95.4985 25.8005 95.6515 26.3017 95.617 26.8079C95.617 26.924 95.6112 27.0692 95.5996 27.2434ZM93.8866 25.6116C93.3233 25.6116 92.9981 25.9368 92.9052 26.5843H94.7576V26.5117C94.765 26.2808 94.691 26.0547 94.5485 25.8729C94.4659 25.7811 94.3631 25.7097 94.2483 25.6644C94.1334 25.619 94.0096 25.601 93.8865 25.6116L93.8866 25.6116Z" fill="#1A171B"/>
<path d="M99.0256 24.9089C99.375 24.8952 99.7201 24.9907 100.013 25.1819C100.146 25.2823 100.251 25.4151 100.318 25.5676C100.385 25.72 100.412 25.8871 100.396 26.053L100.35 29.1451H99.435L99.4699 26.3752C99.4845 25.8816 99.2231 25.6348 98.6917 25.6348C98.4965 25.6262 98.3017 25.659 98.12 25.7311C97.9383 25.8032 97.774 25.9129 97.6378 26.053L97.5913 29.1452H96.6709L96.7435 25.0135H97.6145V25.449C97.7985 25.2648 98.0192 25.1214 98.2624 25.0283C98.5056 24.9353 98.7656 24.8946 99.0256 24.9089Z" fill="#1A171B"/>
<path d="M103.999 25.78H102.852L102.815 28.0128C102.801 28.1433 102.835 28.2743 102.91 28.3815C102.96 28.4212 103.018 28.4507 103.079 28.4681C103.14 28.4856 103.204 28.4907 103.268 28.4831C103.464 28.4795 103.66 28.4492 103.848 28.3931L103.97 29.1045C103.669 29.2076 103.353 29.2606 103.035 29.2613C102.292 29.2613 101.923 28.971 101.923 28.3902L101.97 25.7771H101.331V25.0164H101.97L101.996 23.7389H102.867L102.841 25.0164H103.988L103.999 25.78Z" fill="#1A171B"/>
<path d="M106.038 24.9177C106.452 24.9319 106.861 25.0103 107.251 25.1499L107.057 25.841C106.737 25.7295 106.402 25.6669 106.064 25.6551C105.684 25.6551 105.483 25.7916 105.483 26.0616C105.483 26.1354 105.5 26.2081 105.532 26.2742C105.565 26.3402 105.613 26.3977 105.672 26.442C105.811 26.5505 105.963 26.6412 106.125 26.712L106.662 26.9472C106.849 27.027 107.009 27.1591 107.124 27.3276C107.248 27.5234 107.311 27.752 107.304 27.9838C107.312 28.1579 107.28 28.3316 107.21 28.4913C107.14 28.651 107.034 28.7923 106.9 28.9042C106.587 29.1457 106.197 29.2664 105.803 29.2439C105.375 29.2383 104.951 29.1567 104.551 29.0029L104.746 28.3003C105.074 28.4323 105.423 28.5041 105.776 28.5122C105.945 28.5222 106.113 28.4786 106.255 28.3875C106.311 28.351 106.357 28.301 106.388 28.242C106.419 28.1831 106.434 28.1173 106.432 28.0507C106.432 27.9811 106.415 27.9127 106.382 27.8511C106.35 27.7896 106.303 27.7365 106.247 27.6965C106.11 27.5894 105.961 27.4988 105.802 27.4264L105.268 27.1706C105.083 27.0798 104.926 26.9416 104.812 26.77C104.683 26.576 104.618 26.3465 104.626 26.1138C104.619 25.9497 104.649 25.786 104.713 25.6351C104.778 25.4843 104.877 25.3501 105.001 25.2428C105.296 25.013 105.664 24.8975 106.038 24.9177Z" fill="#1A171B"/>
</svg>
