<?xml version="1.0" encoding="UTF-8" standalone="no"?>
<!-- Created with Inkscape (http://www.inkscape.org/) -->

<svg
   id="svg2"
   version="1.1"
   inkscape:version="0.91 r13725"
   xml:space="preserve"
   width="20"
   height="20"
   viewBox="0 0 1024 1024"
   sodipodi:docname="butlerbot-powerup-btn-white.svg"><metadata
     id="metadata8"><rdf:RDF><cc:Work
         rdf:about=""><dc:format>image/svg+xml</dc:format><dc:type
           rdf:resource="http://purl.org/dc/dcmitype/StillImage" /><dc:title></dc:title></cc:Work></rdf:RDF></metadata><defs
     id="defs6"><clipPath
       clipPathUnits="userSpaceOnUse"
       id="clipPath22"><path
         d="m 0,2240 760,0 L 760,0 0,0 0,2240 Z"
         id="path24"
         inkscape:connector-curvature="0" /></clipPath></defs><sodipodi:namedview
     pagecolor="#6080a0"
     bordercolor="#666666"
     borderopacity="1"
     objecttolerance="10"
     gridtolerance="10"
     guidetolerance="10"
     inkscape:pageopacity="0"
     inkscape:pageshadow="2"
     inkscape:window-width="1436"
     inkscape:window-height="855"
     id="namedview4"
     showgrid="false"
     inkscape:zoom="0.37793062"
     inkscape:cx="341.59684"
     inkscape:cy="429.57643"
     inkscape:window-x="4"
     inkscape:window-y="1"
     inkscape:window-maximized="1"
     inkscape:current-layer="g10" /><g
     id="g10"
     inkscape:groupmode="layer"
     inkscape:label="butler"
     transform="matrix(1.25,0,0,-1.25,0,1024)"><g
       id="g1720"
       transform="matrix(9.9548292,0,0,10.028648,783.54114,86.655054)"
       style="stroke:#fff;stroke-opacity:1;stroke-width:2.40200076;stroke-miterlimit:4;stroke-dasharray:none"><path
         d="m 0,0 -75.127,0 c -0.966,0 -1.75,-0.783 -1.75,-1.75 0,-0.967 0.784,-1.75 1.75,-1.75 L 0,-3.5 c 0.967,0 1.75,0.783 1.75,1.75 C 1.75,-0.783 0.967,0 0,0"
         style="fill:#fff;fill-opacity:1;fill-rule:nonzero;stroke:#fff;stroke-opacity:1;stroke-width:2.40200076;stroke-miterlimit:4;stroke-dasharray:none"
         id="path1722"
         inkscape:connector-curvature="0" /></g><path
       style="fill:#fff;fill-opacity:1;fill-rule:nonzero;stroke:none"
       d="m 43.287111,260.68718 c 1.114941,202.52855 165.011249,366.94823 366.307849,366.94823 201.2966,0 365.19291,-164.41968 366.30785,-366.94823 l -732.615699,0 z"
       id="path4155" /><path
       style="fill:#fff;fill-opacity:1;fill-rule:nonzero;stroke:none"
       d="m 409.59496,732.5451 c 16.01732,0 29.05815,-13.1275 29.05815,-29.2636 0,-16.14612 -13.04083,-29.26359 -29.05815,-29.26359 -16.01732,0 -29.04819,13.11747 -29.04819,29.26359 0,16.1361 13.03087,29.2636 29.04819,29.2636"
       id="path4153" /><g
       id="g4241"><path
         id="path1726"
         d="m 456.62157,659.85746 c 10.44262,11.45271 16.87344,26.6762 16.87344,43.42404 0,35.49139 -28.66991,64.36387 -63.90005,64.36387 -35.23014,0 -63.89009,-28.87248 -63.89009,-64.36387 0,-16.74784 6.42086,-31.97133 16.85352,-43.42404 C 163.46181,636.31019 8.4452088,465.412 8.4452088,258.61125 c 0,-5.4255 0.1990966,-10.81088 0.408148,-16.15615 0.3683287,-9.42693 8.0534572,-16.86819 17.4010412,-16.86819 l 365.919612,0 0,-51.55728 c 0,-1.79513 0.34842,-3.5 0.85612,-5.14469 l -357.368418,0 c -9.60641,0 -17.420951,-7.86246 -17.420951,-17.55014 0,-9.6977 7.814541,-17.55013 17.420951,-17.55013 l 747.876458,0 c 9.62631,0 17.42095,7.85243 17.42095,17.55013 0,9.68768 -7.79464,17.55014 -17.42095,17.55014 l -357.37837,0 c 0.50769,1.64469 0.85611,3.34956 0.85611,5.14469 l 0,51.55728 365.91961,0 c 9.34759,0 17.03272,7.44126 17.40105,16.86819 0.20905,5.34527 0.4181,10.73065 0.4181,16.15615 0,206.80075 -155.02656,377.69894 -354.1331,401.24621"
         style="fill:#fff;fill-opacity:1;fill-rule:nonzero;stroke:none" /></g><g
       id="g1814"
       transform="matrix(0.99797786,0,0,1.0053782,185.87716,439.51423)" /><g
       id="g1822"
       transform="matrix(0.99797786,0,0,1.0053782,113.16709,411.49916)" /><path
       inkscape:connector-curvature="0"
       id="path1730"
       style="fill:#000;fill-opacity:1;fill-rule:nonzero;stroke:#fff;stroke-width:23.99999809;stroke-miterlimit:4;stroke-dasharray:none;stroke-opacity:1"
       d="M 367.34364,558.2161 C 154.25057,511.21183 125.45125,324.53857 125.18246,322.66322 c -1.36381,-9.59742 5.26611,-18.49283 14.78293,-19.8467 0.8362,-0.13037 1.66245,-0.17049 2.47875,-0.17049 8.54124,0 15.98745,6.30802 17.23181,15.06303 0.22896,1.6447 25.38481,164.34949 215.13381,206.20906 9.38741,2.07593 15.34039,11.44269 13.27974,20.89971 -2.04074,9.45701 -11.25891,15.4742 -20.74586,13.39827" /><rect
       style="opacity:1;fill:none;fill-opacity:1;fill-rule:nonzero;stroke:none;stroke-width:30;stroke-linecap:round;stroke-linejoin:round;stroke-miterlimit:4;stroke-dasharray:none;stroke-dashoffset:0;stroke-opacity:1"
       id="rect4269"
       width="818.13959"
       height="821.31476"
       x="1.0583953"
       y="-820.25635"
       transform="scale(1,-1)" /></g></svg>
