<svg width="20" height="13" viewBox="0 0 20 13" fill="none" xmlns="http://www.w3.org/2000/svg">
<path d="M9.53335 3.90105C8.099 3.90105 6.93335 5.06671 6.93335 6.50105C6.93335 7.9354 8.099 9.10105 9.53335 9.10105C10.9677 9.10105 12.1333 7.9354 12.1333 6.50105C12.1333 5.06671 10.9677 3.90105 9.53335 3.90105Z" fill="#999999"/>
<path d="M9.53335 0C5.2 0 1.49935 2.69531 0 6.5C1.49935 10.3047 5.2 13 9.53335 13C13.871 13 17.5673 10.3047 19.0667 6.5C17.5673 2.69531 13.871 0 9.53335 0ZM9.53335 10.8333C7.14135 10.8333 5.2 8.89196 5.2 6.49996C5.2 4.10796 7.14135 2.16665 9.53335 2.16665C11.9253 2.16665 13.8667 4.108 13.8667 6.5C13.8667 8.892 11.9253 10.8333 9.53335 10.8333Z" fill="#999999"/>
</svg>
