<svg width="19" height="16" viewBox="0 0 19 16" fill="none" xmlns="http://www.w3.org/2000/svg">
<path d="M9.12427 5.06527L11.7769 7.7179L11.7895 7.57896C11.7895 6.18526 10.6569 5.05264 9.26322 5.05264L9.12427 5.06527Z" fill="#999999"/>
<path d="M9.26321 3.36845C11.5874 3.36845 13.4738 5.25478 13.4738 7.57899C13.4738 8.12215 13.3643 8.64005 13.1748 9.11582L15.638 11.579C16.9095 10.5179 17.9117 9.14531 18.5306 7.57899C17.0696 3.88216 13.478 1.2632 9.26325 1.2632C8.08429 1.2632 6.95589 1.47371 5.90747 1.85266L7.72642 3.66738C8.20216 3.48213 8.72005 3.36845 9.26321 3.36845Z" fill="#999999"/>
<path d="M0.842093 1.07369L2.76209 2.99369L3.14527 3.37686C1.75579 4.46317 0.656843 5.9074 0 7.57895C1.45686 11.2758 5.05264 13.8947 9.26318 13.8947C10.5685 13.8947 11.8148 13.6421 12.9558 13.1832L13.3137 13.5411L15.7685 16L16.8422 14.9305L1.91578 0L0.842093 1.07369ZM5.49897 5.72633L6.80002 7.02739C6.76212 7.20845 6.73686 7.38948 6.73686 7.57895C6.73686 8.97265 7.86948 10.1053 9.26318 10.1053C9.45265 10.1053 9.63372 10.08 9.81056 10.0421L11.1116 11.3432C10.5516 11.6211 9.92847 11.7895 9.26318 11.7895C6.93897 11.7895 5.05264 9.90317 5.05264 7.57895C5.05264 6.9137 5.22107 6.29053 5.49897 5.72633Z" fill="#999999"/>
</svg>
